<svg width="16" height="16" viewBox="0 0 16 16" fill="none" xmlns="http://www.w3.org/2000/svg">
<g clip-path="url(#clip0_684_1210)">
<path d="M13.3335 4.66666L13.9602 3.29333L15.3335 2.66666L13.9602 2.04L13.3335 0.666664L12.7068 2.04L11.3335 2.66666L12.7068 3.29333L13.3335 4.66666Z" fill="#F6DED2" fill-opacity="0.2"/>
<path d="M5.66675 4.66666L6.29341 3.29333L7.66675 2.66666L6.29341 2.04L5.66675 0.666664L5.04008 2.04L3.66675 2.66666L5.04008 3.29333L5.66675 4.66666Z" fill="#F6DED2" fill-opacity="0.2"/>
<path d="M13.3335 8.33333L12.7068 9.70666L11.3335 10.3333L12.7068 10.96L13.3335 12.3333L13.9602 10.96L15.3335 10.3333L13.9602 9.70666L13.3335 8.33333Z" fill="#F6DED2" fill-opacity="0.2"/>
<path d="M11.8068 6.08L9.92012 4.19333C9.78679 4.06667 9.62012 4 9.44679 4C9.27345 4 9.10679 4.06667 8.97345 4.19333L1.52679 11.64C1.26679 11.9 1.26679 12.32 1.52679 12.58L3.41345 14.4667C3.54679 14.6 3.71345 14.6667 3.88679 14.6667C4.06012 14.6667 4.22679 14.6 4.36012 14.4733L11.8068 7.02667C12.0668 6.76667 12.0668 6.34 11.8068 6.08ZM9.44679 5.61333L10.3868 6.55333L9.60679 7.33333L8.66679 6.39333L9.44679 5.61333ZM3.88679 13.06L2.94679 12.12L7.72679 7.33333L8.66679 8.27333L3.88679 13.06Z" fill="#F6DED2" fill-opacity="0.2"/>
</g>
<defs>
<clipPath id="clip0_684_1210">
<rect width="16" height="16" fill="white"/>
</clipPath>
</defs>
</svg>
